<mxfile host="Electron" agent="Mozilla/5.0 (Windows NT 10.0; Win64; x64) AppleWebKit/537.36 (KHTML, like Gecko) draw.io/24.7.8 Chrome/128.0.6613.36 Electron/32.0.1 Safari/537.36" version="24.7.8">
  <diagram id="C5RBs43oDa-KdzZeNtuy" name="Page-1">
    <mxGraphModel dx="2449" dy="1594" grid="1" gridSize="10" guides="1" tooltips="1" connect="1" arrows="1" fold="1" page="0" pageScale="1" pageWidth="827" pageHeight="1169" math="0" shadow="0">
      <root>
        <mxCell id="WIyWlLk6GJQsqaUBKTNV-0" />
        <mxCell id="WIyWlLk6GJQsqaUBKTNV-1" parent="WIyWlLk6GJQsqaUBKTNV-0" />
        <mxCell id="9EL65uPqYUARe2e2anMU-4" value="Machine" style="swimlane;fontStyle=0;childLayout=stackLayout;horizontal=1;startSize=26;fillColor=none;horizontalStack=0;resizeParent=1;resizeParentMax=0;resizeLast=0;collapsible=1;marginBottom=0;whiteSpace=wrap;html=1;" vertex="1" parent="WIyWlLk6GJQsqaUBKTNV-1">
          <mxGeometry x="-100" y="40" width="220" height="320" as="geometry" />
        </mxCell>
        <mxCell id="9EL65uPqYUARe2e2anMU-5" value="-Inventory : List&amp;lt;Products&amp;gt;&lt;br&gt;-state : Istate&lt;br&gt;-balance : int&lt;br&gt;-selectedProduct : Product&lt;br&gt;&lt;br&gt;&lt;br&gt;&lt;br&gt;&lt;br&gt;&lt;br&gt;&lt;br&gt;+InitiateTransaction()&lt;br&gt;+AcceptCash() : Bool&lt;br&gt;+AcceptProductCode() : Bool&lt;br&gt;+DispenseProduct(Product)&lt;br&gt;+DispenseBalance(balance)&lt;div&gt;+DisplayMessage(string)&lt;br&gt;+NextState()&lt;/div&gt;" style="text;strokeColor=none;fillColor=none;align=left;verticalAlign=top;spacingLeft=4;spacingRight=4;overflow=hidden;rotatable=0;points=[[0,0.5],[1,0.5]];portConstraint=eastwest;whiteSpace=wrap;html=1;" vertex="1" parent="9EL65uPqYUARe2e2anMU-4">
          <mxGeometry y="26" width="220" height="294" as="geometry" />
        </mxCell>
        <mxCell id="9EL65uPqYUARe2e2anMU-10" value="IState" style="swimlane;fontStyle=0;childLayout=stackLayout;horizontal=1;startSize=26;fillColor=none;horizontalStack=0;resizeParent=1;resizeParentMax=0;resizeLast=0;collapsible=1;marginBottom=0;whiteSpace=wrap;html=1;" vertex="1" parent="WIyWlLk6GJQsqaUBKTNV-1">
          <mxGeometry x="510" y="60" width="220" height="100" as="geometry" />
        </mxCell>
        <mxCell id="9EL65uPqYUARe2e2anMU-11" value="+NextState()&lt;br&gt;machine : Machine" style="text;strokeColor=none;fillColor=none;align=left;verticalAlign=top;spacingLeft=4;spacingRight=4;overflow=hidden;rotatable=0;points=[[0,0.5],[1,0.5]];portConstraint=eastwest;whiteSpace=wrap;html=1;" vertex="1" parent="9EL65uPqYUARe2e2anMU-10">
          <mxGeometry y="26" width="220" height="74" as="geometry" />
        </mxCell>
        <mxCell id="9EL65uPqYUARe2e2anMU-12" value="ReadyToUse" style="swimlane;fontStyle=0;childLayout=stackLayout;horizontal=1;startSize=26;fillColor=none;horizontalStack=0;resizeParent=1;resizeParentMax=0;resizeLast=0;collapsible=1;marginBottom=0;whiteSpace=wrap;html=1;" vertex="1" parent="WIyWlLk6GJQsqaUBKTNV-1">
          <mxGeometry x="330" y="240" width="160" height="150" as="geometry" />
        </mxCell>
        <mxCell id="9EL65uPqYUARe2e2anMU-13" value="ReadyToUse(machine m)&lt;br&gt;&lt;span style=&quot;white-space: pre;&quot;&gt;&#x9;&lt;/span&gt;machine=m&lt;br&gt;NextState():&lt;br&gt;&lt;span style=&quot;white-space: pre;&quot;&gt;&#x9;&lt;/span&gt;machine.state = AwaitingCash" style="text;strokeColor=none;fillColor=none;align=left;verticalAlign=top;spacingLeft=4;spacingRight=4;overflow=hidden;rotatable=0;points=[[0,0.5],[1,0.5]];portConstraint=eastwest;whiteSpace=wrap;html=1;" vertex="1" parent="9EL65uPqYUARe2e2anMU-12">
          <mxGeometry y="26" width="160" height="124" as="geometry" />
        </mxCell>
        <mxCell id="9EL65uPqYUARe2e2anMU-14" value="Product" style="swimlane;fontStyle=0;childLayout=stackLayout;horizontal=1;startSize=26;fillColor=none;horizontalStack=0;resizeParent=1;resizeParentMax=0;resizeLast=0;collapsible=1;marginBottom=0;whiteSpace=wrap;html=1;" vertex="1" parent="WIyWlLk6GJQsqaUBKTNV-1">
          <mxGeometry x="-70" y="-310" width="160" height="140" as="geometry" />
        </mxCell>
        <mxCell id="9EL65uPqYUARe2e2anMU-15" value="-Product Code&lt;br&gt;-Quantity&lt;br&gt;-Price&lt;div&gt;&lt;br&gt;+DispenseProduct()&lt;br&gt;&lt;span style=&quot;white-space: pre;&quot;&gt;&#x9;&lt;/span&gt;Quantity-=1&lt;br&gt;&lt;span style=&quot;white-space: pre;&quot;&gt;&#x9;&lt;/span&gt;Trigger mechanism()&lt;br&gt;&lt;/div&gt;" style="text;strokeColor=none;fillColor=none;align=left;verticalAlign=top;spacingLeft=4;spacingRight=4;overflow=hidden;rotatable=0;points=[[0,0.5],[1,0.5]];portConstraint=eastwest;whiteSpace=wrap;html=1;" vertex="1" parent="9EL65uPqYUARe2e2anMU-14">
          <mxGeometry y="26" width="160" height="114" as="geometry" />
        </mxCell>
        <mxCell id="9EL65uPqYUARe2e2anMU-23" value="AwaitingCash()" style="swimlane;fontStyle=0;childLayout=stackLayout;horizontal=1;startSize=26;fillColor=none;horizontalStack=0;resizeParent=1;resizeParentMax=0;resizeLast=0;collapsible=1;marginBottom=0;whiteSpace=wrap;html=1;" vertex="1" parent="WIyWlLk6GJQsqaUBKTNV-1">
          <mxGeometry x="560" y="240" width="160" height="150" as="geometry" />
        </mxCell>
        <mxCell id="9EL65uPqYUARe2e2anMU-24" value="AwaitingCash(machine m)&lt;br&gt;&lt;span style=&quot;white-space: pre;&quot;&gt;&#x9;&lt;/span&gt;machine=m&lt;div&gt;&lt;br&gt;TimeOut 30sec :&lt;br&gt;&lt;span style=&quot;white-space: pre;&quot;&gt;&#x9;&lt;/span&gt;if machine.accepptCash() us true then nextState=AwaitingProduct&lt;br&gt;&lt;/div&gt;" style="text;strokeColor=none;fillColor=none;align=left;verticalAlign=top;spacingLeft=4;spacingRight=4;overflow=hidden;rotatable=0;points=[[0,0.5],[1,0.5]];portConstraint=eastwest;whiteSpace=wrap;html=1;" vertex="1" parent="9EL65uPqYUARe2e2anMU-23">
          <mxGeometry y="26" width="160" height="124" as="geometry" />
        </mxCell>
        <mxCell id="9EL65uPqYUARe2e2anMU-25" value="AwaitingProduct" style="swimlane;fontStyle=0;childLayout=stackLayout;horizontal=1;startSize=26;fillColor=none;horizontalStack=0;resizeParent=1;resizeParentMax=0;resizeLast=0;collapsible=1;marginBottom=0;whiteSpace=wrap;html=1;" vertex="1" parent="WIyWlLk6GJQsqaUBKTNV-1">
          <mxGeometry x="800" y="240" width="160" height="150" as="geometry" />
        </mxCell>
        <mxCell id="9EL65uPqYUARe2e2anMU-26" value="Constructor(machine m)&lt;br&gt;&lt;span style=&quot;white-space: pre;&quot;&gt;&#x9;&lt;/span&gt;machine=m&lt;br&gt;&lt;br&gt;TimeOut 30sec :&lt;br&gt;&lt;span style=&quot;white-space: pre;&quot;&gt;&#x9;&lt;/span&gt;if machine.acceptProduct() is true then nextState=ConcludingTrans" style="text;strokeColor=none;fillColor=none;align=left;verticalAlign=top;spacingLeft=4;spacingRight=4;overflow=hidden;rotatable=0;points=[[0,0.5],[1,0.5]];portConstraint=eastwest;whiteSpace=wrap;html=1;" vertex="1" parent="9EL65uPqYUARe2e2anMU-25">
          <mxGeometry y="26" width="160" height="124" as="geometry" />
        </mxCell>
        <mxCell id="9EL65uPqYUARe2e2anMU-27" value="ConcludingTransaction()" style="swimlane;fontStyle=0;childLayout=stackLayout;horizontal=1;startSize=26;fillColor=none;horizontalStack=0;resizeParent=1;resizeParentMax=0;resizeLast=0;collapsible=1;marginBottom=0;whiteSpace=wrap;html=1;" vertex="1" parent="WIyWlLk6GJQsqaUBKTNV-1">
          <mxGeometry x="1040" y="240" width="160" height="150" as="geometry" />
        </mxCell>
        <mxCell id="9EL65uPqYUARe2e2anMU-28" value="Constructor(machine m)&lt;br&gt;&lt;span style=&quot;white-space: pre;&quot;&gt;&#x9;&lt;/span&gt;machine=m&lt;br&gt;&lt;br&gt;machine.dispenseProduct()&lt;br&gt;machine.dispensebalance()&lt;br&gt;reset properties&lt;br&gt;after 5 seconds : move to Ready state" style="text;strokeColor=none;fillColor=none;align=left;verticalAlign=top;spacingLeft=4;spacingRight=4;overflow=hidden;rotatable=0;points=[[0,0.5],[1,0.5]];portConstraint=eastwest;whiteSpace=wrap;html=1;" vertex="1" parent="9EL65uPqYUARe2e2anMU-27">
          <mxGeometry y="26" width="160" height="124" as="geometry" />
        </mxCell>
        <mxCell id="9EL65uPqYUARe2e2anMU-29" value="" style="endArrow=classic;html=1;rounded=0;exitX=0.431;exitY=-0.007;exitDx=0;exitDy=0;exitPerimeter=0;entryX=0.145;entryY=1.027;entryDx=0;entryDy=0;entryPerimeter=0;" edge="1" parent="WIyWlLk6GJQsqaUBKTNV-1" source="9EL65uPqYUARe2e2anMU-12" target="9EL65uPqYUARe2e2anMU-11">
          <mxGeometry relative="1" as="geometry">
            <mxPoint x="560" y="270" as="sourcePoint" />
            <mxPoint x="660" y="270" as="targetPoint" />
            <Array as="points">
              <mxPoint x="399" y="200" />
              <mxPoint x="542" y="200" />
            </Array>
          </mxGeometry>
        </mxCell>
        <mxCell id="9EL65uPqYUARe2e2anMU-30" value="Label" style="edgeLabel;resizable=0;html=1;;align=center;verticalAlign=middle;" connectable="0" vertex="1" parent="9EL65uPqYUARe2e2anMU-29">
          <mxGeometry relative="1" as="geometry" />
        </mxCell>
        <mxCell id="9EL65uPqYUARe2e2anMU-32" value="Implemenrts&lt;div&gt;&lt;br&gt;&lt;/div&gt;" style="edgeLabel;html=1;align=center;verticalAlign=middle;resizable=0;points=[];" vertex="1" connectable="0" parent="9EL65uPqYUARe2e2anMU-29">
          <mxGeometry x="0.0089" y="-2" relative="1" as="geometry">
            <mxPoint as="offset" />
          </mxGeometry>
        </mxCell>
        <mxCell id="9EL65uPqYUARe2e2anMU-33" value="" style="endArrow=classic;html=1;rounded=0;exitX=0.431;exitY=-0.007;exitDx=0;exitDy=0;exitPerimeter=0;entryX=0.273;entryY=1.027;entryDx=0;entryDy=0;entryPerimeter=0;" edge="1" parent="WIyWlLk6GJQsqaUBKTNV-1">
          <mxGeometry relative="1" as="geometry">
            <mxPoint x="600" y="240" as="sourcePoint" />
            <mxPoint x="601.56" y="161.99800000000005" as="targetPoint" />
            <Array as="points">
              <mxPoint x="600" y="201" />
            </Array>
          </mxGeometry>
        </mxCell>
        <mxCell id="9EL65uPqYUARe2e2anMU-34" value="Label" style="edgeLabel;resizable=0;html=1;;align=center;verticalAlign=middle;" connectable="0" vertex="1" parent="9EL65uPqYUARe2e2anMU-33">
          <mxGeometry relative="1" as="geometry" />
        </mxCell>
        <mxCell id="9EL65uPqYUARe2e2anMU-35" value="Implemenrts" style="edgeLabel;html=1;align=center;verticalAlign=middle;resizable=0;points=[];" vertex="1" connectable="0" parent="9EL65uPqYUARe2e2anMU-33">
          <mxGeometry x="0.0089" y="-2" relative="1" as="geometry">
            <mxPoint as="offset" />
          </mxGeometry>
        </mxCell>
        <mxCell id="9EL65uPqYUARe2e2anMU-39" value="" style="endArrow=classic;html=1;rounded=0;exitX=0.431;exitY=-0.007;exitDx=0;exitDy=0;exitPerimeter=0;entryX=0.864;entryY=1.068;entryDx=0;entryDy=0;entryPerimeter=0;" edge="1" parent="WIyWlLk6GJQsqaUBKTNV-1" target="9EL65uPqYUARe2e2anMU-11">
          <mxGeometry relative="1" as="geometry">
            <mxPoint x="1110" y="237" as="sourcePoint" />
            <mxPoint x="1253" y="160" as="targetPoint" />
            <Array as="points">
              <mxPoint x="1110" y="180" />
              <mxPoint x="700" y="180" />
            </Array>
          </mxGeometry>
        </mxCell>
        <mxCell id="9EL65uPqYUARe2e2anMU-40" value="Label" style="edgeLabel;resizable=0;html=1;;align=center;verticalAlign=middle;" connectable="0" vertex="1" parent="9EL65uPqYUARe2e2anMU-39">
          <mxGeometry relative="1" as="geometry" />
        </mxCell>
        <mxCell id="9EL65uPqYUARe2e2anMU-41" value="Implemenrts&lt;div&gt;&lt;br&gt;&lt;/div&gt;" style="edgeLabel;html=1;align=center;verticalAlign=middle;resizable=0;points=[];" vertex="1" connectable="0" parent="9EL65uPqYUARe2e2anMU-39">
          <mxGeometry x="0.0089" y="-2" relative="1" as="geometry">
            <mxPoint as="offset" />
          </mxGeometry>
        </mxCell>
        <mxCell id="9EL65uPqYUARe2e2anMU-42" value="" style="endArrow=classic;html=1;rounded=0;exitX=0.5;exitY=0;exitDx=0;exitDy=0;entryX=0.686;entryY=1.027;entryDx=0;entryDy=0;entryPerimeter=0;" edge="1" parent="WIyWlLk6GJQsqaUBKTNV-1" source="9EL65uPqYUARe2e2anMU-25" target="9EL65uPqYUARe2e2anMU-11">
          <mxGeometry relative="1" as="geometry">
            <mxPoint x="1050" y="232" as="sourcePoint" />
            <mxPoint x="640" y="160" as="targetPoint" />
            <Array as="points">
              <mxPoint x="880" y="210" />
              <mxPoint x="660" y="210" />
            </Array>
          </mxGeometry>
        </mxCell>
        <mxCell id="9EL65uPqYUARe2e2anMU-43" value="Label" style="edgeLabel;resizable=0;html=1;;align=center;verticalAlign=middle;" connectable="0" vertex="1" parent="9EL65uPqYUARe2e2anMU-42">
          <mxGeometry relative="1" as="geometry" />
        </mxCell>
        <mxCell id="9EL65uPqYUARe2e2anMU-44" value="Implemenrts&lt;div&gt;&lt;br&gt;&lt;/div&gt;" style="edgeLabel;html=1;align=center;verticalAlign=middle;resizable=0;points=[];" vertex="1" connectable="0" parent="9EL65uPqYUARe2e2anMU-42">
          <mxGeometry x="0.0089" y="-2" relative="1" as="geometry">
            <mxPoint as="offset" />
          </mxGeometry>
        </mxCell>
        <mxCell id="9EL65uPqYUARe2e2anMU-45" value="&lt;span style=&quot;&quot;&gt;&lt;b&gt;&lt;font style=&quot;font-size: 14px;&quot;&gt;THIS IS NO CLASS, ONLY INFORMATION BOX&lt;/font&gt;&lt;/b&gt;&lt;br&gt;+InitiateTransaction()&lt;/span&gt;&lt;br style=&quot;&quot;&gt;&lt;span style=&quot;&quot;&gt;+AcceptCash() :&lt;/span&gt;&lt;br style=&quot;&quot;&gt;&lt;span style=&quot;&quot;&gt;+AcceptProductCode()&lt;br&gt;All these three functions calls : NextState()&lt;br&gt;&lt;br&gt;NextState() :&lt;br&gt;&lt;span style=&quot;white-space: pre;&quot;&gt;&#x9;&lt;/span&gt;Istate.NextState()&lt;br&gt;&lt;/span&gt;" style="rounded=0;whiteSpace=wrap;html=1;align=left;" vertex="1" parent="WIyWlLk6GJQsqaUBKTNV-1">
          <mxGeometry x="-390" y="180" width="180" height="190" as="geometry" />
        </mxCell>
        <mxCell id="9EL65uPqYUARe2e2anMU-48" value="" style="endArrow=classic;html=1;rounded=0;exitX=1.011;exitY=0.178;exitDx=0;exitDy=0;exitPerimeter=0;" edge="1" parent="WIyWlLk6GJQsqaUBKTNV-1">
          <mxGeometry relative="1" as="geometry">
            <mxPoint x="122.42000000000007" y="90.33200000000011" as="sourcePoint" />
            <mxPoint x="500" y="90" as="targetPoint" />
          </mxGeometry>
        </mxCell>
        <mxCell id="9EL65uPqYUARe2e2anMU-49" value="Label" style="edgeLabel;resizable=0;html=1;;align=center;verticalAlign=middle;" connectable="0" vertex="1" parent="9EL65uPqYUARe2e2anMU-48">
          <mxGeometry relative="1" as="geometry" />
        </mxCell>
        <mxCell id="9EL65uPqYUARe2e2anMU-50" value="One-one" style="edgeLabel;resizable=0;html=1;;align=left;verticalAlign=bottom;" connectable="0" vertex="1" parent="9EL65uPqYUARe2e2anMU-48">
          <mxGeometry x="-1" relative="1" as="geometry" />
        </mxCell>
        <mxCell id="9EL65uPqYUARe2e2anMU-51" value="Has-A" style="edgeLabel;html=1;align=center;verticalAlign=middle;resizable=0;points=[];" vertex="1" connectable="0" parent="9EL65uPqYUARe2e2anMU-48">
          <mxGeometry x="-0.003" y="-1" relative="1" as="geometry">
            <mxPoint as="offset" />
          </mxGeometry>
        </mxCell>
        <mxCell id="9EL65uPqYUARe2e2anMU-52" value="" style="endArrow=classic;html=1;rounded=0;entryX=1.016;entryY=0.258;entryDx=0;entryDy=0;entryPerimeter=0;" edge="1" parent="WIyWlLk6GJQsqaUBKTNV-1" target="9EL65uPqYUARe2e2anMU-5">
          <mxGeometry relative="1" as="geometry">
            <mxPoint x="510" y="140" as="sourcePoint" />
            <mxPoint x="560" y="300" as="targetPoint" />
          </mxGeometry>
        </mxCell>
        <mxCell id="9EL65uPqYUARe2e2anMU-53" value="Association" style="edgeLabel;resizable=0;html=1;;align=center;verticalAlign=middle;" connectable="0" vertex="1" parent="9EL65uPqYUARe2e2anMU-52">
          <mxGeometry relative="1" as="geometry" />
        </mxCell>
        <mxCell id="9EL65uPqYUARe2e2anMU-57" value="" style="endArrow=classic;html=1;rounded=0;exitX=0.466;exitY=-0.001;exitDx=0;exitDy=0;exitPerimeter=0;entryX=0.438;entryY=1.032;entryDx=0;entryDy=0;entryPerimeter=0;" edge="1" parent="WIyWlLk6GJQsqaUBKTNV-1" source="9EL65uPqYUARe2e2anMU-4" target="9EL65uPqYUARe2e2anMU-15">
          <mxGeometry relative="1" as="geometry">
            <mxPoint x="200" y="100" as="sourcePoint" />
            <mxPoint x="360" y="100" as="targetPoint" />
          </mxGeometry>
        </mxCell>
        <mxCell id="9EL65uPqYUARe2e2anMU-58" value="Has-Many (Composition)" style="edgeLabel;resizable=0;html=1;;align=center;verticalAlign=middle;" connectable="0" vertex="1" parent="9EL65uPqYUARe2e2anMU-57">
          <mxGeometry relative="1" as="geometry" />
        </mxCell>
        <mxCell id="9EL65uPqYUARe2e2anMU-59" value="Source" style="edgeLabel;resizable=0;html=1;;align=left;verticalAlign=bottom;" connectable="0" vertex="1" parent="9EL65uPqYUARe2e2anMU-57">
          <mxGeometry x="-1" relative="1" as="geometry" />
        </mxCell>
      </root>
    </mxGraphModel>
  </diagram>
</mxfile>
